<svg width="13" height="13" viewBox="0 0 13 13" fill="none" xmlns="http://www.w3.org/2000/svg">
<path d="M6.38655 12.9036C6.19552 12.9033 6.00898 12.8431 5.8512 12.7307C3.51383 11.075 2.50173 9.93978 1.94348 9.23002C0.75383 7.71709 0.184282 6.16381 0.200342 4.48174C0.21908 2.55419 1.70109 0.986328 3.50401 0.986328C4.81501 0.986328 5.72302 1.75691 6.25182 2.39871C6.26857 2.41883 6.28927 2.43497 6.31251 2.44603C6.33576 2.45709 6.361 2.46281 6.38655 2.46281C6.41209 2.46281 6.43734 2.45709 6.46059 2.44603C6.48383 2.43497 6.50453 2.41883 6.52128 2.39871C7.05008 1.75629 7.95808 0.986328 9.26908 0.986328C11.072 0.986328 12.554 2.55419 12.5728 4.48205C12.5888 6.16443 12.0187 7.71771 10.8296 9.23033C10.2714 9.94009 9.25927 11.0753 6.92189 12.731C6.76408 12.8433 6.57755 12.9034 6.38655 12.9036Z" fill="#CACACA"/>
</svg>
